# xmcd
#
# Track frame offsets:
#	150
#	16257
#	31290
#	47310
#	79702
#
# Disc length: 1363 seconds
#
# Revision: 1
# Processed by: cddbd v1.5PL3 Copyright (c) Steve Scherf et al.
# Submitted via: audiograbber 1.83.01
#
DISCID=29055105
DTITLE=B*Witched - Blame It On The Weatherman
DYEAR=1999
DGENRE=
TTITLE0=Blame It On The Weatherman (Radio Edit)
TTITLE1=Together We'll Be Fine
TTITLE2=Blame It On The Weatherman (Orchestral Version)
TTITLE3=Blame It On The Weatherman (Amen Club Mix)
TTITLE4=Blame It On The Weatherman (Chicane Vocal Mix)
EXTD=
EXTT0=
EXTT1=
EXTT2=
EXTT3=
EXTT4=
PLAYORDER=
